:SAMPLES-PER-SECOND 30
:FULLY-SPECIFIED
:DEGREES
621
root  34.6625 25.35 5.41692 29.1626 -84.6636 1.20708
RightUpLeg  -80.4688 -6.49759 7.56736
RightLeg  83.6214 -0.689466 -4.43138
RightFoot  -24.7987 0.180878 1.2003
RightToes  -27.8017 -0.12908 -0.236401
Spine  18.789 2.05152 5.50873
Spine1  27.1518 -0.58688 7.90757
HEad  -2.34322 -1.61515 3.81679
LeftShoulder1  0 -2.42657e-020 -4.95415e-022
LeftArm  1.57576 -48.6418 -99.1205
LeftForeArm  -135.447 -12.268 -1.81833
LeftHand  8.64662 -24.2635 -39.1322
RightShoulder  0 2.42657e-020 1.07489e-018
RightArm  -61.54 51.1156 82.5851
RightForeArm  40.4163 7.5164 1.32435
RightHand  -0.653856 19.4924 -3.43648
LeftUpLeg  -12.7203 0.224226 1.07533
LeftLeg  63.1354 0.676698 1.13465
LeftFoot  14.824 0.129321 -0.994073
LeftToes  -44.4578 1.18758e-006 1.19596e-007
622
root  32.7335 25.1993 5.6965 133.444 -88.4806 -102.421
RightUpLeg  -78.0769 -5.95856 8.54305
RightLeg  84.5141 0.184126 0.517777
RightFoot  -27.1364 -0.290647 -0.826751
RightToes  -31.6687 -0.155579 -0.263395
Spine  18.8581 3.2992 6.02362
Spine1  28.1851 2.74108 8.07612
HEad  -2.91916 1.71934 0.0590849
LeftShoulder1  0 -2.42657e-020 -4.95415e-022
LeftArm  -3.58511 -43.988 -98.2912
LeftForeArm  -140 -13.521 -2.04229
LeftHand  9.61321 -24.8411 -42.1741
RightShoulder  0 2.42657e-020 1.07489e-018
RightArm  -68.3278 51.3539 75.4855
RightForeArm  40.4947 7.68077 1.35361
RightHand  -0.742843 20.1438 -3.81156
LeftUpLeg  -18.4693 -3.27611 -1.32236
LeftLeg  74.0625 -4.37967 -12.1107
LeftFoot  7.74859 0.167351 -2.47075
LeftToes  -38.927 1.18758e-006 1.19596e-007
623
root  30.5704 25.4047 5.85309 -176.789 -84.6734 -152.141
RightUpLeg  -73.2081 -3.85287 7.26147
RightLeg  83.5819 0.510542 2.31035
RightFoot  -29.3455 -0.50308 -1.54368
RightToes  -34.8937 -0.17903 -0.284499
Spine  18.6023 3.94671 6.27692
Spine1  28.9727 5.13221 7.8043
HEad  -2.85467 4.76896 -3.15271
LeftShoulder1  0 -2.42657e-020 -4.95415e-022
LeftArm  -9.33875 -38.4502 -95.9454
LeftForeArm  -145.692 -15.5104 -2.4064
LeftHand  9.94732 -25.7782 -42.0238
RightShoulder  0 2.42657e-020 1.07489e-018
RightArm  -65.1169 48.1917 71.2901
RightForeArm  33.3949 12.9505 2.31773
RightHand  -0.341864 22.2537 -1.36843
LeftUpLeg  -24.7821 -2.93813 -1.8439
LeftLeg  82.1827 -2.36409 -11.4954
LeftFoot  3.56163 0.0311368 -1.00145
LeftToes  -43.0911 1.18758e-006 1.19596e-007
624
root  28.2427 25.9194 6.00401 -165.03 -82.3626 -164.387
RightUpLeg  -66.5755 -2.28121 4.39426
RightLeg  80.8086 0.65697 2.46424
RightFoot  -31.5267 -0.536612 -1.52331
RightToes  -36.138 -0.18839 -0.292283
Spine  17.5653 3.50668 6.16364
Spine1  28.3806 5.59138 6.85686
HEad  -1.53724 7.72504 -5.24063
LeftShoulder1  0 -2.42657e-020 -4.95415e-022
LeftArm  -14.7235 -31.3827 -92.7084
LeftForeArm  -147.661 -17.2144 -2.72715
LeftHand  10.1326 -25.9579 -42.4581
RightShoulder  0 2.42657e-020 1.07489e-018
RightArm  -60.1253 41.3723 67.6065
RightForeArm  32.2055 17.9773 3.27238
RightHand  0.566551 23.3678 3.10999
LeftUpLeg  -31.7464 -1.85557 -1.37043
LeftLeg  87.7256 -0.404538 -3.93728
LeftFoot  -4.95622 0.0138497 0.320006
LeftToes  -35.3178 1.18758e-006 1.19596e-007
625
root  25.801 26.694 6.15769 -153.646 -81.7556 -176.252
RightUpLeg  -58.9414 -1.86607 1.14241
RightLeg  76.163 0.655119 1.80575
RightFoot  -32.8365 -0.428144 -1.0754
RightToes  -36.5836 -0.191783 -0.295021
Spine  16.0681 2.39523 5.83844
Spine1  26.8642 4.70471 5.72161
HEad  -0.0702527 9.48715 -6.39045
LeftShoulder1  0 -2.42657e-020 -4.95415e-022
LeftArm  -19.3852 -24.2949 -90.2487
LeftForeArm  -147.191 -17.875 -2.85399
LeftHand  10.4226 -25.3721 -44.4932
RightShoulder  0 2.42657e-020 1.07489e-018
RightArm  -54.4394 33.7556 64.4557
RightForeArm  18.2667 22.3544 4.15367
RightHand  1.88004 22.8707 9.64751
LeftUpLeg  -40.0092 -1.02492 -0.0863735
LeftLeg  90.475 0.146846 2.49661
LeftFoot  -13.1136 -0.0676446 -0.588526
LeftToes  -25.143 1.18758e-006 1.19596e-007
